<svg id="Layer_1" data-name="Layer 1" xmlns="http://www.w3.org/2000/svg" viewBox="0 0 203.53 196.91"><defs><style>.cls-1{fill:#212121;}</style></defs><path class="cls-1" d="M190.75,90a78.28,78.28,0,0,0-35-26.2q-2.57-1-5.18-1.78l5.21-3.21a2.26,2.26,0,0,0-1.74-4.11l-3.28.61a30.77,30.77,0,0,0,8.12-11.79,2.26,2.26,0,0,0-2.77-2.76l-17.19,6.54a13.34,13.34,0,0,1,.2-10.91,13.79,13.79,0,0,1,7.9-6.91,5.51,5.51,0,0,1-3.63,8.22c-2.06.47-2.22,4,0,4.34a13.21,13.21,0,0,0,13.06-5.55,12.76,12.76,0,0,0-.07-13.77,12.6,12.6,0,0,0-13-5.43c-5.52,1-8.66,5.34-10.71,10.18-1.46,3.45-3.64,9.93-8,10.41q1.27-11,2.52-22a2.47,2.47,0,0,0,.64-2.23q-.1-.62-.24-1.23c0-.41.1-.82.14-1.23a1.84,1.84,0,0,0-1-1.88c-1.27-3.69-3.48-7-7.28-8.61a9.22,9.22,0,0,0-7.54.06,8.21,8.21,0,0,0-3.81,3.56,1.85,1.85,0,0,0-.69.79,247.36,247.36,0,0,0-10,25.1,30,30,0,0,1-7.56-5.77c-2.78-2.94-5.19-6.25-8.72-8.37a19,19,0,0,0-28.25,12A2.26,2.26,0,0,0,57,29.92c3.8-5.91,11.69-10.07,18.21-5.66a8,8,0,0,1,3.46,7.81A6.77,6.77,0,0,1,76.79,36a10.22,10.22,0,0,1-3.44,2,20.73,20.73,0,0,1-.53-4.3,2.28,2.28,0,0,0-3.38-2A9.56,9.56,0,0,0,66.3,46.46L47.58,53.29a2.28,2.28,0,0,0-.53,4.11,33.75,33.75,0,0,0,3.87,2.52c-13.6,4.72-26.27,12.49-35.5,23.65C5.62,95.41-.54,110.63,0,126.14.6,141.12,7.66,155,18,165.62,28.92,177,43.07,184.48,58.1,189c16.89,5.06,34.65,6.56,52.18,7.48,16.48.87,33.59.95,49.42-4.33a63.67,63.67,0,0,0,20-10.75,60.79,60.79,0,0,0,13-14.73,70.49,70.49,0,0,0,10.77-38.05A65.55,65.55,0,0,0,190.75,90Zm-57.3-53.56c2.45-3.67,3.12-8.35,5.92-11.8a8.49,8.49,0,0,1,10.17-2.29,8.38,8.38,0,0,1,4.26,9.09,7.79,7.79,0,0,1-1.72,3.37,10.11,10.11,0,0,0-.13-5.32c-.49-1.6-1.7-4.28-3.48-4.76-1.59-.44-4,.83-5.37,1.53a18.12,18.12,0,0,0-4.35,3.12,17.45,17.45,0,0,0-5.06,9.38,18.43,18.43,0,0,0,2.19,12.5,2.29,2.29,0,0,0,2.54,1l13.66-5.21a26.58,26.58,0,0,1-17.75,11.29,2.27,2.27,0,0,0-1.57,2.76,2.31,2.31,0,0,0,2.77,1.58l7.67-1.44-11.95,7.37c-1.78,1.09-1.2,4.41,1.13,4.2l13-1.18a14.9,14.9,0,0,1-8,5.39,14.75,14.75,0,0,1-13.28-3.19,2.33,2.33,0,0,0-2.72-.35,2.26,2.26,0,0,0-1,2.54A14.91,14.91,0,0,0,126,83a26.39,26.39,0,0,1-22.15-7.73c-1.84-1.94-4.6.52-3.53,2.73,2,4.07,3.94,8.15,5.9,12.22A17.62,17.62,0,0,1,89,71.49c.09-1.81-2.63-3.16-3.84-1.6a21.09,21.09,0,0,1-29,4.83A34.22,34.22,0,0,0,73.17,63.3a2.29,2.29,0,0,0,.47-2.46,2.2,2.2,0,0,0-2.06-1.38A30.39,30.39,0,0,1,53.19,56l18.22-6.64a2.61,2.61,0,0,0,1.44-1.46,26.76,26.76,0,0,0,12.44,10,2.12,2.12,0,0,0,2.29-.73,9.4,9.4,0,0,0,2.49,7.66c2.66,2.9,6.81,3.9,10.59,4.12a29.39,29.39,0,0,0,21.18-7.68,1.93,1.93,0,0,0,.43-2.48q1-8.19,1.91-16.38C128,42.33,131.26,39.77,133.45,36.48ZM68.93,38.8c.2.88.42,1.76.7,2.61a.9.9,0,0,1,0,.16,2.26,2.26,0,0,0,.21.48c.33.9.7,1.78,1.12,2.65A5.26,5.26,0,0,1,68.93,38.8ZM108.87,13a11,11,0,0,0,5.95,4.63,10.81,10.81,0,0,0,7.8-.71q-2.39,21-4.85,42a24.74,24.74,0,0,1-15.1,5.66c-2.75.06-5.73-.22-8.11-1.73-1.8-1.15-3.36-3.68-2.31-5.81a3.36,3.36,0,0,0,.17-.47A2,2,0,0,0,95.17,55,239.75,239.75,0,0,1,108.87,13Zm3.06-6.07c0-.07,0-.11,0-.14a1.05,1.05,0,0,0,.08-.13l.28-.47s.23-.28.26-.32l.43-.4.23-.17a4.19,4.19,0,0,1,.58-.34l.26-.13a6.76,6.76,0,0,1,1.09-.3,2.81,2.81,0,0,0,.43,0q.3,0,.6,0l.46.07.57.16a3.81,3.81,0,0,1,1,.43,8.45,8.45,0,0,1,3.49,3.7,13.73,13.73,0,0,1,1,2.45A6.54,6.54,0,0,1,116,13.25a6.52,6.52,0,0,1-4.33-5.46,2.58,2.58,0,0,0,.08-.26C111.81,7.31,111.87,7.1,111.93,6.89ZM82,36.46a12.59,12.59,0,0,0,.4-10.3C80.27,21.09,75.25,18.32,70,18a15,15,0,0,1,9.53,2.45c2.93,2,5,5,7.42,7.54a33.69,33.69,0,0,0,9,6.63c-2,6.27-3.71,12.63-5.17,19a1.89,1.89,0,0,0-2.5,1,6.65,6.65,0,0,0-.27.61,2.46,2.46,0,0,0-1.6-1.72A21.71,21.71,0,0,1,74.77,42.2C77.69,41,80.43,39.5,82,36.46ZM168.11,183.7c-14,7.44-30.3,8.87-45.91,8.68-8.14-.1-16.29-.59-24.41-1.23a224.27,224.27,0,0,1-25.18-3.25c-15.41-3-30.53-8.35-43.09-18C18.65,161.6,9.71,150.16,6.15,136.79c-3.75-14.07-.75-29,6.5-41.47C20.42,82,32.79,72.15,46.91,66.23a94.31,94.31,0,0,1,10.34-3.59,34.16,34.16,0,0,0,8.85,1.54,30.66,30.66,0,0,1-15.51,7.18c-1.74.26-2.06,2.66-1,3.76a25.6,25.6,0,0,0,35.26,1.57,22.18,22.18,0,0,0,6.93,12.37,22.73,22.73,0,0,0,18.47,5.32c1.55-.24,1.9-2.16,1.34-3.31l-3.34-6.93a31,31,0,0,0,26.59.94,2,2,0,0,0,.69-3.12,19.67,19.67,0,0,0,3.1-.52,19.47,19.47,0,0,0,13-11.75,2.25,2.25,0,0,0-2.17-2.84l-7.73.69,3.67-2.26a75.91,75.91,0,0,1,35.1,19.65,62.63,62.63,0,0,1,17.91,34.86,65.82,65.82,0,0,1-5.14,36.49A57.46,57.46,0,0,1,168.11,183.7Z"/><path class="cls-1" d="M39.72,127a142.76,142.76,0,0,1,13.8-8l5.88,12.11a1.72,1.72,0,0,0,.31.92l.46.68a2.26,2.26,0,0,0,3.89-2.28L57.55,117a141.09,141.09,0,0,1,20.61-7.81c2.78-.81,1.6-5.16-1.19-4.34A145.46,145.46,0,0,0,55.59,113Q53,107.73,50.51,102.5a2.25,2.25,0,1,0-3.88,2.27l4.92,10.14a142.46,142.46,0,0,0-14.1,8.19C35,124.68,37.29,128.58,39.72,127Z"/><path class="cls-1" d="M114.76,137.88a97.71,97.71,0,0,1,16-11.57A118.91,118.91,0,0,1,141.4,140c.88,1.32,3.08,1.59,3.89,0l.48-.95a2.35,2.35,0,0,0-1.9-3.38,128.69,128.69,0,0,0-9.06-11.61,97.91,97.91,0,0,1,15.1-6.32c2.75-.88,1.57-5.23-1.19-4.34a103.58,103.58,0,0,0-17,7.24,125,125,0,0,0-10.67-10,2.32,2.32,0,0,0-3.18,0,2.28,2.28,0,0,0,0,3.19,124.55,124.55,0,0,1,9.82,9.12,104.21,104.21,0,0,0-16.09,11.75C109.4,136.63,112.6,139.8,114.76,137.88Z"/><path class="cls-1" d="M164.13,143.24a2.32,2.32,0,0,0-.81,3.08c1.83,4,0,9.28-3.57,11.71-5.44,3.72-12.54,0-17.79-2.22A31.09,31.09,0,0,0,131.58,153a20.68,20.68,0,0,0-9,1.54,23,23,0,0,0-7.6,5.18c-1.71,1.72-3.7,4.16-6.4,3.91-3.12-.3-5.7-3.12-7.76-5.21-2.33-2.38-4.51-4.91-7-7.16-4.74-4.35-11-7.74-17.57-6.57-3.3.59-6,2.59-8.5,4.73-2.18,1.88-4.3,4.06-7.09,5-2.42.81-4.84.5-6.25-1.8s-1.7-5-2.46-7.46c-.89-2.92-2.42-6-5.1-7.62a7.36,7.36,0,0,0-4.67-1A27.59,27.59,0,0,0,37,138c-2.91.89-5.29-.93-6.28-3.68-1.34-3.73.31-7.94,1.53-11.47.95-2.74-3.4-3.92-4.34-1.2-1.32,3.81-2.56,7.76-2,11.83a11.44,11.44,0,0,0,5,8c3.14,2,6.3,1.19,9.55,0a5.08,5.08,0,0,1,3.52-.42,5.08,5.08,0,0,1,2.35,2.32c1.46,2.47,1.75,5.36,2.65,8,1,3,2.64,5.81,5.62,7.13,3.14,1.39,6.61.67,9.57-.85s5.3-4.12,8-6.19A10.73,10.73,0,0,1,80.57,149a18,18,0,0,1,8.77,4.25,91.27,91.27,0,0,1,7.36,7.36c2.49,2.61,5.14,5.31,8.54,6.7a9.39,9.39,0,0,0,9.5-1.34c2.4-1.82,4.19-4.31,6.76-5.92a16.92,16.92,0,0,1,8.91-2.63c3.54,0,6.89,1.24,10.1,2.62,7.05,3,15.6,6.56,22.47,1.15a14.48,14.48,0,0,0,4.23-17.15A2.26,2.26,0,0,0,164.13,143.24Z"/></svg>