<svg id="Layer_1" data-name="Layer 1" xmlns="http://www.w3.org/2000/svg" viewBox="0 0 400 275"><defs><style>.cls-1{fill:#f2f0ef;}</style></defs><path class="cls-1" d="M172.73,128.41a9.08,9.08,0,0,0-9.09,9.09v36.36a9.09,9.09,0,1,0,18.18,0V137.5A9.08,9.08,0,0,0,172.73,128.41Z"/><path class="cls-1" d="M336.36,128.41a63.64,63.64,0,1,0-63.63-63.64A63.63,63.63,0,0,0,336.36,128.41Zm0-109.09a45.46,45.46,0,1,1-45.45,45.45A45.45,45.45,0,0,1,336.36,19.32Z"/><path class="cls-1" d="M336.36,146.59A63.64,63.64,0,1,0,400,210.23,63.63,63.63,0,0,0,336.36,146.59Zm0,109.09a45.46,45.46,0,1,1,45.46-45.45A45.44,45.44,0,0,1,336.36,255.68Z"/><path class="cls-1" d="M236.36,2.69a27.29,27.29,0,0,0-27.27,5.38,27,27,0,0,0-29.92-4.26,9.07,9.07,0,0,0-6.44-2.67h-9.09V110.23h18.18V28.41a9.09,9.09,0,1,1,18.18,0V273.86h18.18V201.14h36.37v-9.09a9.09,9.09,0,0,0-9.1-9.1H218.18V28.41a9.09,9.09,0,0,1,18.18,0V146.59h18.19V28.41A27.26,27.26,0,0,0,236.36,2.69Z"/><path class="cls-1" d="M127.27,137.5v9.09H63.64a63.64,63.64,0,0,0-9.09,126.63,64.84,64.84,0,0,0,9.09.64h81.81V128.41h-9.09A9.08,9.08,0,0,0,127.27,137.5ZM63.64,255.68a45.46,45.46,0,1,1,0-90.91H90.91v90.91Zm63.63,0H109.09V164.77h18.18Z"/><path class="cls-1" d="M90.91,1.78a64.84,64.84,0,0,0-9.09-.64H0V146.59H9.09a9.08,9.08,0,0,0,9.09-9.09v-9.09H81.82A63.64,63.64,0,0,0,90.91,1.78ZM18.18,110.23V19.32H36.36v90.91Zm63.64,0H54.55V19.32H81.82a45.46,45.46,0,0,1,0,90.91Z"/></svg>